%FSLAX44Y44*%
%MOMM*%
G71*
G01*
G75*
G04 Layer_Color=16711935*
%ADD10C,0.2540*%
%ADD11C,0.1778*%
D10*
X374142Y780496D02*
X376596Y782950D01*
X381506D01*
X383960Y780496D01*
Y778041D01*
X381506Y775587D01*
X379051D01*
X381506D01*
X383960Y773132D01*
Y770677D01*
X381506Y768223D01*
X376596D01*
X374142Y770677D01*
X388869Y768223D02*
Y770677D01*
X391324D01*
Y768223D01*
X388869D01*
X401142Y780496D02*
X403596Y782950D01*
X408506D01*
X410960Y780496D01*
Y778041D01*
X408506Y775587D01*
X406051D01*
X408506D01*
X410960Y773132D01*
Y770677D01*
X408506Y768223D01*
X403596D01*
X401142Y770677D01*
X415869Y782950D02*
Y773132D01*
X420778Y768223D01*
X425687Y773132D01*
Y782950D01*
X1124074Y1027552D02*
X1113917D01*
Y1019934D01*
X1118995Y1022474D01*
X1121535D01*
X1124074Y1019934D01*
Y1014856D01*
X1121535Y1012317D01*
X1116456D01*
X1113917Y1014856D01*
X1129152Y1027552D02*
Y1017395D01*
X1134230Y1012317D01*
X1139309Y1017395D01*
Y1027552D01*
X1218562Y297430D02*
X1216022Y299969D01*
X1210944D01*
X1208405Y297430D01*
Y287273D01*
X1210944Y284734D01*
X1216022D01*
X1218562Y287273D01*
Y292351D01*
X1213483D01*
X1223640Y284734D02*
Y299969D01*
X1233797Y284734D01*
Y299969D01*
X1238875D02*
Y284734D01*
X1246493D01*
X1249032Y287273D01*
Y297430D01*
X1246493Y299969D01*
X1238875D01*
D11*
X1080516Y553466D02*
X1082971D01*
X1081743D01*
Y560830D01*
X1080516Y559602D01*
X1091561Y553466D02*
X1086652D01*
X1091561Y558375D01*
Y559602D01*
X1090334Y560830D01*
X1087880D01*
X1086652Y559602D01*
X1094016Y560830D02*
Y555920D01*
X1096470Y553466D01*
X1098925Y555920D01*
Y560830D01*
X1027938Y646555D02*
Y639191D01*
X1031620D01*
X1032847Y640418D01*
Y645327D01*
X1031620Y646555D01*
X1027938D01*
X1036529Y644100D02*
X1038983D01*
X1040211Y642873D01*
Y639191D01*
X1036529D01*
X1035302Y640418D01*
X1036529Y641646D01*
X1040211D01*
X1042665Y644100D02*
Y639191D01*
Y641646D01*
X1043893Y642873D01*
X1045120Y644100D01*
X1046347D01*
X1052483Y636736D02*
X1053711D01*
X1054938Y637964D01*
Y644100D01*
X1051256D01*
X1050029Y642873D01*
Y640418D01*
X1051256Y639191D01*
X1054938D01*
X1057392D02*
X1059847D01*
X1058620D01*
Y646555D01*
X1057392D01*
X1063529Y639191D02*
X1065983D01*
X1064756D01*
Y644100D01*
X1063529D01*
X1069665Y639191D02*
Y644100D01*
X1073347D01*
X1074574Y642873D01*
Y639191D01*
X1078256Y645327D02*
Y644100D01*
X1077029D01*
X1079483D01*
X1078256D01*
Y640418D01*
X1079483Y639191D01*
X1083165D02*
Y640418D01*
X1084392D01*
Y639191D01*
X1083165D01*
X1032847Y674410D02*
X1031620Y675638D01*
X1029165D01*
X1027938Y674410D01*
Y673183D01*
X1029165Y671956D01*
X1031620D01*
X1032847Y670729D01*
Y669501D01*
X1031620Y668274D01*
X1029165D01*
X1027938Y669501D01*
X1035302Y675638D02*
Y668274D01*
Y671956D01*
X1036529Y673183D01*
X1038983D01*
X1040211Y671956D01*
Y668274D01*
X1042665D02*
X1045120D01*
X1043893D01*
Y673183D01*
X1042665D01*
X1050029Y668274D02*
Y674410D01*
Y671956D01*
X1048802D01*
X1051256D01*
X1050029D01*
Y674410D01*
X1051256Y675638D01*
X1056165Y674410D02*
Y673183D01*
X1054938D01*
X1057393D01*
X1056165D01*
Y669501D01*
X1057393Y668274D01*
X1068438D02*
Y675638D01*
X1072120D01*
X1073347Y674410D01*
Y671956D01*
X1072120Y670729D01*
X1068438D01*
X1070892D02*
X1073347Y668274D01*
X1079483D02*
X1077029D01*
X1075801Y669501D01*
Y671956D01*
X1077029Y673183D01*
X1079483D01*
X1080711Y671956D01*
Y670729D01*
X1075801D01*
X1085620Y665819D02*
X1086847D01*
X1088074Y667047D01*
Y673183D01*
X1084392D01*
X1083165Y671956D01*
Y669501D01*
X1084392Y668274D01*
X1088074D01*
X1090529D02*
Y669501D01*
X1091756D01*
Y668274D01*
X1090529D01*
X1203198Y945769D02*
Y953133D01*
X1206880D01*
X1208107Y951905D01*
Y949451D01*
X1206880Y948223D01*
X1203198D01*
X1205652D02*
X1208107Y945769D01*
X1214243D02*
X1211789D01*
X1210562Y946996D01*
Y949451D01*
X1211789Y950678D01*
X1214243D01*
X1215471Y949451D01*
Y948223D01*
X1210562D01*
X1220380Y943315D02*
X1221607D01*
X1222834Y944542D01*
Y950678D01*
X1219153D01*
X1217925Y949451D01*
Y946996D01*
X1219153Y945769D01*
X1222834D01*
X1225289Y950678D02*
Y946996D01*
X1226516Y945769D01*
X1230198D01*
Y950678D01*
X1232652Y945769D02*
X1235107D01*
X1233880D01*
Y953133D01*
X1232652D01*
X1240016Y950678D02*
X1242471D01*
X1243698Y949451D01*
Y945769D01*
X1240016D01*
X1238789Y946996D01*
X1240016Y948223D01*
X1243698D01*
X1251061Y953133D02*
Y945769D01*
X1247380D01*
X1246152Y946996D01*
Y949451D01*
X1247380Y950678D01*
X1251061D01*
X1254743Y945769D02*
X1257198D01*
X1258425Y946996D01*
Y949451D01*
X1257198Y950678D01*
X1254743D01*
X1253516Y949451D01*
Y946996D01*
X1254743Y945769D01*
X1260880Y950678D02*
Y945769D01*
Y948223D01*
X1262107Y949451D01*
X1263334Y950678D01*
X1264561D01*
X1280516Y953133D02*
X1275607D01*
Y949451D01*
X1278061Y950678D01*
X1279289D01*
X1280516Y949451D01*
Y946996D01*
X1279289Y945769D01*
X1276834D01*
X1275607Y946996D01*
X1282970Y953133D02*
Y948223D01*
X1285425Y945769D01*
X1287880Y948223D01*
Y953133D01*
X1038352Y951865D02*
Y959229D01*
X1042034D01*
X1043261Y958001D01*
Y955547D01*
X1042034Y954320D01*
X1038352D01*
X1045716Y956774D02*
Y953092D01*
X1046943Y951865D01*
X1050625D01*
Y956774D01*
X1053079Y951865D02*
X1055534D01*
X1054306D01*
Y959229D01*
X1053079D01*
X1059216Y951865D02*
X1062897D01*
X1064125Y953092D01*
X1062897Y954320D01*
X1060443D01*
X1059216Y955547D01*
X1060443Y956774D01*
X1064125D01*
X1067806D02*
X1070261D01*
X1071488Y955547D01*
Y951865D01*
X1067806D01*
X1066579Y953092D01*
X1067806Y954320D01*
X1071488D01*
X1078852Y959229D02*
Y951865D01*
X1075170D01*
X1073943Y953092D01*
Y955547D01*
X1075170Y956774D01*
X1078852D01*
X1082534Y951865D02*
X1084988D01*
X1086216Y953092D01*
Y955547D01*
X1084988Y956774D01*
X1082534D01*
X1081306Y955547D01*
Y953092D01*
X1082534Y951865D01*
X1088670Y956774D02*
Y951865D01*
Y954320D01*
X1089897Y955547D01*
X1091125Y956774D01*
X1092352D01*
X296672Y998093D02*
Y1005457D01*
X300354D01*
X301581Y1004229D01*
Y1001775D01*
X300354Y1000547D01*
X296672D01*
X299126D02*
X301581Y998093D01*
X305263D02*
X307717D01*
X308945Y999320D01*
Y1001775D01*
X307717Y1003002D01*
X305263D01*
X304036Y1001775D01*
Y999320D01*
X305263Y998093D01*
X312626Y1004229D02*
Y1003002D01*
X311399D01*
X313854D01*
X312626D01*
Y999320D01*
X313854Y998093D01*
X318763Y1003002D02*
X321217D01*
X322445Y1001775D01*
Y998093D01*
X318763D01*
X317536Y999320D01*
X318763Y1000547D01*
X322445D01*
X324899Y1003002D02*
Y998093D01*
Y1000547D01*
X326127Y1001775D01*
X327354Y1003002D01*
X328581D01*
X332263D02*
Y999320D01*
X333490Y998093D01*
X337172D01*
Y996866D01*
X335945Y995639D01*
X334717D01*
X337172Y998093D02*
Y1003002D01*
X737743Y928495D02*
Y921131D01*
X741425D01*
X742652Y922358D01*
Y923586D01*
X741425Y924813D01*
X737743D01*
X741425D01*
X742652Y926040D01*
Y927267D01*
X741425Y928495D01*
X737743D01*
X745107Y926040D02*
Y922358D01*
X746334Y921131D01*
X750016D01*
Y926040D01*
X752470D02*
X757379D01*
X752470Y921131D01*
X757379D01*
X759834Y926040D02*
X764743D01*
X759834Y921131D01*
X764743D01*
X770879D02*
X768425D01*
X767197Y922358D01*
Y924813D01*
X768425Y926040D01*
X770879D01*
X772106Y924813D01*
Y923586D01*
X767197D01*
X774561Y926040D02*
Y921131D01*
Y923586D01*
X775788Y924813D01*
X777016Y926040D01*
X778243D01*
X1396575Y983232D02*
Y975868D01*
X1392893D01*
X1391666Y977095D01*
Y979550D01*
X1392893Y980777D01*
X1396575D01*
X1402711Y975868D02*
X1400257D01*
X1399030Y977095D01*
Y979550D01*
X1400257Y980777D01*
X1402711D01*
X1403939Y979550D01*
Y978323D01*
X1399030D01*
X1413757Y975868D02*
Y983232D01*
X1417439D01*
X1418666Y982004D01*
Y979550D01*
X1417439Y978323D01*
X1413757D01*
X1416211D02*
X1418666Y975868D01*
X1422348Y980777D02*
X1424802D01*
X1426030Y979550D01*
Y975868D01*
X1422348D01*
X1421120Y977095D01*
X1422348Y978323D01*
X1426030D01*
X1433393Y983232D02*
Y975868D01*
X1429711D01*
X1428484Y977095D01*
Y979550D01*
X1429711Y980777D01*
X1433393D01*
X1435848Y975868D02*
X1438302D01*
X1437075D01*
Y980777D01*
X1435848D01*
X1443211Y975868D02*
X1445666D01*
X1446893Y977095D01*
Y979550D01*
X1445666Y980777D01*
X1443211D01*
X1441984Y979550D01*
Y977095D01*
X1443211Y975868D01*
X1376172Y987679D02*
Y995043D01*
X1378627Y992588D01*
X1381081Y995043D01*
Y987679D01*
X1384763D02*
X1387217D01*
X1388445Y988906D01*
Y991361D01*
X1387217Y992588D01*
X1384763D01*
X1383536Y991361D01*
Y988906D01*
X1384763Y987679D01*
X1395808Y995043D02*
Y987679D01*
X1392126D01*
X1390899Y988906D01*
Y991361D01*
X1392126Y992588D01*
X1395808D01*
X1398263D02*
Y988906D01*
X1399490Y987679D01*
X1403172D01*
Y992588D01*
X1405626Y987679D02*
X1408081D01*
X1406854D01*
Y995043D01*
X1405626D01*
X1412990Y987679D02*
X1415445D01*
X1416672Y988906D01*
Y991361D01*
X1415445Y992588D01*
X1412990D01*
X1411763Y991361D01*
Y988906D01*
X1412990Y987679D01*
X1030479Y679958D02*
Y684867D01*
X1034161Y687322D02*
X1030479Y691003D01*
X1026797Y687322D01*
X1031620Y631952D02*
Y627043D01*
X1027938Y624588D02*
X1031620Y620907D01*
X1035302Y624588D01*
X331216Y537337D02*
X333671D01*
X332443D01*
Y544701D01*
X331216Y543473D01*
X344716Y544701D02*
X349625D01*
X347170D01*
Y537337D01*
X355761D02*
X353307D01*
X352080Y538564D01*
Y541019D01*
X353307Y542246D01*
X355761D01*
X356989Y541019D01*
Y539791D01*
X352080D01*
X364352Y542246D02*
X360671D01*
X359443Y541019D01*
Y538564D01*
X360671Y537337D01*
X364352D01*
X366807D02*
X369261D01*
X368034D01*
Y544701D01*
X366807D01*
X372943Y537337D02*
Y538564D01*
X374170D01*
Y537337D01*
X372943D01*
X556089Y537340D02*
X551180D01*
X556089Y542249D01*
Y543476D01*
X554862Y544704D01*
X552407D01*
X551180Y543476D01*
X565907Y544704D02*
X570816D01*
X568362D01*
Y537340D01*
X576953D02*
X574498D01*
X573271Y538567D01*
Y541022D01*
X574498Y542249D01*
X576953D01*
X578180Y541022D01*
Y539795D01*
X573271D01*
X585544Y542249D02*
X581862D01*
X580634Y541022D01*
Y538567D01*
X581862Y537340D01*
X585544D01*
X587998D02*
X590453D01*
X589225D01*
Y544704D01*
X587998D01*
X594134Y537340D02*
Y538567D01*
X595362D01*
Y537340D01*
X594134D01*
X774573Y544704D02*
Y539795D01*
X777028Y537340D01*
X779482Y539795D01*
Y544704D01*
X783164Y542249D02*
X785618D01*
X786846Y541022D01*
Y537340D01*
X783164D01*
X781937Y538567D01*
X783164Y539795D01*
X786846D01*
X789300Y537340D02*
X791755D01*
X790527D01*
Y544704D01*
X789300D01*
X795437Y537340D02*
Y538567D01*
X796664D01*
Y537340D01*
X795437D01*
X990727D02*
Y544704D01*
X994409D01*
X995636Y543476D01*
Y541022D01*
X994409Y539795D01*
X990727D01*
X1001772Y537340D02*
X999318D01*
X998091Y538567D01*
Y541022D01*
X999318Y542249D01*
X1001772D01*
X1003000Y541022D01*
Y539795D01*
X998091D01*
X1010363Y544704D02*
Y537340D01*
X1006682D01*
X1005454Y538567D01*
Y541022D01*
X1006682Y542249D01*
X1010363D01*
X1012818Y537340D02*
Y538567D01*
X1014045D01*
Y537340D01*
X1012818D01*
M02*
