M48
;Layer_Color=9474304
;FILE_FORMAT=2:5
INCH,LZ
;TYPE=PLATED
T1F00S00C0.02500
T2F00S00C0.02800
T3F00S00C0.03543
T4F00S00C0.03898
T5F00S00C0.03937
T6F00S00C0.09843
T7F00S00C0.10827
;TYPE=NON_PLATED
%
T01
X055215Y01344
Y01444
Y01545
X05528Y016355
X055213Y01744
X055215Y01844
Y01945
Y02044
Y02145
Y02244
Y02344
Y02444
Y02545
Y02744
X055213Y03144
X055215Y03544
X055213Y03644
Y03744
T02
X008595Y013095
X009785Y011925
X014155Y013065
X01518Y013055
X01618Y01302
X017125Y01303
X01811Y01305
X019165Y013055
X01967Y013915
X0211Y01376
X021145Y01278
X022215Y012835
X02321Y01282
X02421
X02522Y01281
X026215Y01277
X02711Y013835
X028395Y013735
X02828Y012755
X029265Y012765
X030315Y01277
X031265Y012685
X032285
X03326Y01278
X034305Y01345
X035275Y012815
X0363Y0128
X03723Y012645
X038175Y01266
X039315Y01281
X040355Y012815
X03418Y01504
X052625Y018295
X053985Y019385
X053695Y029435
X039775Y026265
X0348Y02513
X034245Y02724
X03467Y02979
X034845Y0308
X036425Y03076
X03761
X03785Y02026
X0376Y01932
X03664Y019285
X036125Y018375
X03534Y017775
X04077Y020165
X03127Y02631
X030975Y030625
X029155Y03076
X02798
X02648Y03074
X026045Y029795
X02575Y027145
X026395Y02511
X022725Y02629
X02233Y03064
X020565Y03078
X019375Y03077
X01786Y030805
X01739Y029825
X01716Y02714
X01784Y02511
X019555Y01929
X0205Y01938
X020705Y020305
X021695Y02041
X01898Y01845
X01843Y01767
X02669Y017835
X027565Y018385
X02805Y019315
X02907Y01935
X02932Y020275
X03031Y02038
X013095Y02042
X012145Y020335
X011905Y019425
X010935Y01928
X010275Y01857
X00972Y017795
X008925Y025145
X008775Y02619
X00883Y0279
X009155Y030655
X0107264Y030655
X011895Y030775
X0139Y030625
X014Y02629
X01288Y03505
X01335Y036835
X0141975Y0382175
X01044Y033915
X017485Y03406
X01969Y034075
X020565Y036615
X021585Y03663
X0233525Y0369675
X02505Y036575
X02493Y037545
X023935Y040195
X02282Y04017
X02109Y040175
X018455Y03668
X024615Y032495
X02976Y04138
X030745Y04136
X030565Y04277
X03155Y04279
X032575Y042785
X03356Y04277
X034535Y042755
X03447Y040715
X033485
X03255Y041305
X036685Y04093
X03908Y040775
X03849Y04279
X040945Y042865
X044185Y037455
X04549Y034975
X036605Y037295
X052405Y037335
X053805Y0403
T03
X01853Y038365
X01953
X02053
X02153
X02253
X02353
X02453
X02553
X02653
X02753
X02853
X02953
X03053
Y039365
X02953
X02853
X02753
X02653
X02553
X02453
X02353
X02253
X02153
X02053
X01953
X01853
X029563Y0436969
X030563
X031563
X032563
X033563
X034563
X035563
X036563
X037563
X038563
X039563
X040563
X041563
X042563
X043563
X044563
X03753Y039365
Y038365
X03653
Y039365
X03553
Y038365
X03453
Y039365
X03353
Y038365
X03253
Y039365
X03153
Y038365
T04
X01322Y011895
X01422
X01522
X01622
X01722
X01822
X01922
X02022
X02122
X02222
X02322
X02422
X02522
X02622
X02722
X02822
X02922
X03022
X03122
X03222
X03322
X03422
X03522
X03622
X03722
X03822
X03922
X04022
X04122
X04222
T05
X01044Y03255
X0114243
X0124085
Y0382587
X01044
T06
X0108638Y0437028
X047503Y0436928
T07
X0083325Y0113454
X05646Y01126
X03947Y019615
X01662Y019565
X0083075Y0446454
X01662Y038865
X03942
X056435Y04461
M30
